<svg version="1.1" id="Layer_1" xmlns="http://www.w3.org/2000/svg" xmlns:xlink="http://www.w3.org/1999/xlink" x="0px" y="0px"
	 width="100%" viewBox="0 0 100 100" enable-background="new 0 0 100 100" xml:space="preserve">
<path fill="#000000" opacity="1.000000" stroke="none" 
	d="
M61.000000,101.000000 
	C40.666672,101.000000 20.833340,101.000000 1.000008,101.000000 
	C1.000005,67.666679 1.000005,34.333351 1.000003,1.000021 
	C34.333317,1.000014 67.666634,1.000014 100.999969,1.000007 
	C100.999977,34.333313 100.999977,67.666626 100.999985,100.999969 
	C87.833336,101.000000 74.666664,101.000000 61.000000,101.000000 
M67.716820,66.676788 
	C67.836830,66.809837 67.956833,66.942879 68.394096,67.678223 
	C70.152275,67.592026 72.815208,68.186310 73.491829,67.286667 
	C75.228798,64.977158 76.287155,62.073368 77.234940,59.277683 
	C78.189522,56.461975 75.427887,53.235100 73.343750,54.645126 
	C69.769386,57.063377 61.312901,54.593945 63.734299,63.533833 
	C63.808685,63.808464 63.205803,64.523628 62.811996,64.626991 
	C59.868103,65.399666 56.922153,66.284523 53.918736,66.632118 
	C53.093624,66.727600 52.071457,65.120415 51.139713,64.294540 
	C49.380733,65.390556 47.491619,65.802269 45.869785,65.318298 
	C39.334763,63.368156 35.634579,58.019608 33.193127,52.375858 
	C30.545717,46.256012 30.200361,38.958752 34.013901,33.455578 
	C36.830639,29.390850 42.296162,27.153324 46.603256,24.132654 
	C49.423851,22.154499 52.105461,22.148973 55.216400,23.983007 
	C62.156761,28.074654 69.255730,31.910103 76.417824,35.602119 
	C77.878914,36.355305 79.900757,36.020687 81.664108,36.187523 
	C81.733208,35.589890 81.802307,34.992260 81.871399,34.394630 
	C75.677025,30.959703 69.078941,28.082544 63.382545,23.959587 
	C54.762749,17.720718 47.054794,17.959398 38.478485,24.031582 
	C32.371601,28.355364 25.431540,31.502367 18.863308,35.174541 
	C19.026777,35.843452 19.190247,36.512360 19.353716,37.181271 
	C20.825821,37.001511 22.370070,37.041237 23.751974,36.587036 
	C25.522764,36.005016 27.162899,35.025475 28.859333,34.217220 
	C29.133392,34.470078 29.407454,34.722931 29.681515,34.975788 
	C28.770338,36.662834 27.859159,38.349884 26.328081,41.184685 
	C28.359768,46.520981 30.785456,53.405285 33.595810,60.128807 
	C36.386375,66.804977 43.846424,67.650093 48.544811,70.881187 
	C50.559628,70.574242 52.484020,70.447510 54.316402,69.968689 
	C58.686317,68.826759 63.012810,67.518623 67.716820,66.676788 
z"/>
<path fill="#385A87" opacity="1.000000" stroke="none" 
	d="
M67.356842,66.277618 
	C63.012810,67.518623 58.686317,68.826759 54.316402,69.968689 
	C52.484020,70.447510 50.559628,70.574242 48.544811,70.881187 
	C43.846424,67.650093 36.386375,66.804977 33.595810,60.128807 
	C30.785456,53.405285 28.359768,46.520981 26.328081,41.184685 
	C27.859159,38.349884 28.770338,36.662834 29.681515,34.975788 
	C29.407454,34.722931 29.133392,34.470078 28.859333,34.217220 
	C27.162899,35.025475 25.522764,36.005016 23.751974,36.587036 
	C22.370070,37.041237 20.825821,37.001511 19.353716,37.181271 
	C19.190247,36.512360 19.026777,35.843452 18.863308,35.174541 
	C25.431540,31.502367 32.371601,28.355364 38.478485,24.031582 
	C47.054794,17.959398 54.762749,17.720718 63.382545,23.959587 
	C69.078941,28.082544 75.677025,30.959703 81.871399,34.394630 
	C81.802307,34.992260 81.733208,35.589890 81.664108,36.187523 
	C79.900757,36.020687 77.878914,36.355305 76.417824,35.602119 
	C69.255730,31.910103 62.156761,28.074654 55.216400,23.983007 
	C52.105461,22.148973 49.423851,22.154499 46.603256,24.132654 
	C42.296162,27.153324 36.830639,29.390850 34.013901,33.455578 
	C30.200361,38.958752 30.545717,46.256012 33.193127,52.375858 
	C35.634579,58.019608 39.334763,63.368156 45.869785,65.318298 
	C47.491619,65.802269 49.380733,65.390556 51.139713,64.294540 
	C52.071457,65.120415 53.093624,66.727600 53.918736,66.632118 
	C56.922153,66.284523 59.868103,65.399666 62.811996,64.626991 
	C63.205803,64.523628 63.808685,63.808464 63.734299,63.533833 
	C61.312901,54.593945 69.769386,57.063377 73.343750,54.645126 
	C75.427887,53.235100 78.189522,56.461975 77.234940,59.277683 
	C76.287155,62.073368 75.228798,64.977158 73.491829,67.286667 
	C72.815208,68.186310 70.152275,67.592026 68.542633,67.324814 
	C69.029007,66.537552 69.366844,66.103691 69.704674,65.669838 
	C68.922066,65.872437 68.139450,66.075027 67.356842,66.277618 
z"/>
<path fill="#000000" opacity="1.000000" stroke="none" 
	d="
M67.536835,66.477203 
	C68.139450,66.075027 68.922066,65.872437 69.704674,65.669838 
	C69.366844,66.103691 69.029007,66.537552 68.384003,67.023666 
	C67.956833,66.942879 67.836830,66.809837 67.536835,66.477203 
z"/>
</svg>