<?xml version="1.0" standalone="no"?>
<!DOCTYPE svg PUBLIC "-//W3C//DTD SVG 20010904//EN"
 "http://www.w3.org/TR/2001/REC-SVG-20010904/DTD/svg10.dtd">
<svg version="1.0" xmlns="http://www.w3.org/2000/svg"
 width="100.000000pt" height="100.000000pt" viewBox="0 0 100.000000 100.000000"
 preserveAspectRatio="xMidYMid meet">
<metadata>
Created by potrace 1.16, written by Peter Selinger 2001-2019
</metadata>
<g transform="translate(0.000000,100.000000) scale(0.100000,-0.100000)"
fill="#000000" stroke="none">
<path d="M340 749 c-161 -89 -169 -94 -153 -110 8 -8 22 -5 51 10 23 12 43 21
46 21 2 0 0 -15 -5 -34 -10 -37 -8 -156 3 -150 3 2 9 -9 13 -24 3 -16 21 -44
38 -63 34 -35 82 -76 82 -69 0 2 17 -3 39 -10 66 -21 167 -5 224 36 21 15 22
15 16 0 -3 -9 -11 -16 -18 -16 -6 0 -3 -5 7 -11 23 -14 33 -6 60 49 24 47 25
87 4 79 -7 -2 -36 -12 -64 -21 -59 -19 -66 -26 -53 -46 7 -11 11 -12 24 0 9 7
19 11 22 8 5 -5 -57 -38 -86 -46 -43 -11 -134 -1 -168 18 -36 20 -88 82 -105
125 -12 27 -10 131 3 170 10 29 55 62 158 114 24 13 29 10 250 -111 50 -27 82
-31 82 -10 0 10 -296 172 -313 171 -7 0 -77 -36 -157 -80z"/>
<path d="M380 709 c0 -6 9 -13 20 -16 19 -5 20 -14 20 -134 0 -122 -1 -129
-20 -129 -11 0 -20 -4 -20 -10 0 -6 41 -10 104 -10 101 0 105 1 125 26 31 39
23 104 -15 127 -10 6 -9 13 2 36 19 37 10 75 -23 101 -21 16 -41 20 -109 20
-54 0 -84 -4 -84 -11z m204 -168 c21 -17 21 -75 0 -95 -10 -11 -34 -16 -75
-16 l-59 0 0 66 0 66 59 -4 c33 -2 66 -10 75 -17z"/>
</g>
</svg>
